<svg xmlns="http://www.w3.org/2000/svg" viewBox="0 0 585.35 585.35"><title>bitpassLogo</title><circle cx="292.68" cy="292.68" r="292.68" style="fill:#008be2"/><path d="M395.32,129.68L314.7,95.75l-89.87,39.67L191.31,258l-57.7,181.44L279.17,585c4.48,0.2,9,.32,13.51.32,153.22,0,278.92-117.74,291.6-267.68Z" transform="translate(0 0)" style="fill:#006db1"/><path d="M316.71,85.19A117.65,117.65,0,0,0,186,187.81l-8,66.64a3.16,3.16,0,0,1-1.94,2.08c-6.56,1.34-11.91,2.55-16.82,3.79a16.26,16.26,0,0,0-11.55,13.24L129.2,426.67a16.37,16.37,0,0,0,8,15.61,367.85,367.85,0,0,0,269.07,32.41,16.37,16.37,0,0,0,11.48-13.25L436.2,308.32a16.26,16.26,0,0,0-8.08-15.6c-4.47-2.37-9.38-4.81-15.43-7.68a3.16,3.16,0,0,1-1.39-2.48l8-66.64A117.65,117.65,0,0,0,316.71,85.19ZM254.53,333.74a32,32,0,1,1,63.55,7.66c-1.4,11.64-9.14,20.59-19.13,25l-6.33,52.54a16,16,0,1,1-31.78-3.83l6.33-52.54C258.51,355.92,253.13,345.38,254.53,333.74ZM379.21,211.09l-6.93,57.5a366.84,366.84,0,0,0-153.11-18.45l6.93-57.49A77.11,77.11,0,0,1,379.21,211.09Z" transform="translate(0 0)" style="fill:#fff"/></svg>